<svg width="1395" height="500" viewBox="0 0 1395 500" fill="none" xmlns="http://www.w3.org/2000/svg">
<path d="M552.637 236.555H532.417C532.048 233.939 531.294 231.615 530.155 229.584C529.016 227.522 527.554 225.768 525.769 224.321C523.984 222.875 521.922 221.767 519.583 220.997C517.275 220.228 514.767 219.843 512.058 219.843C507.165 219.843 502.902 221.059 499.271 223.49C495.639 225.891 492.823 229.399 490.822 234.016C488.822 238.601 487.822 244.172 487.822 250.727C487.822 257.467 488.822 263.13 490.822 267.716C492.854 272.302 495.685 275.764 499.317 278.103C502.948 280.442 507.149 281.612 511.92 281.612C514.597 281.612 517.075 281.258 519.352 280.55C521.661 279.842 523.707 278.811 525.492 277.457C527.277 276.072 528.755 274.394 529.924 272.425C531.124 270.455 531.955 268.208 532.417 265.685L552.637 265.777C552.114 270.116 550.806 274.302 548.713 278.334C546.651 282.335 543.866 285.92 540.357 289.09C536.879 292.229 532.725 294.722 527.893 296.569C523.092 298.385 517.66 299.293 511.597 299.293C503.164 299.293 495.624 297.384 488.976 293.568C482.359 289.752 477.127 284.228 473.28 276.995C469.464 269.763 467.555 261.007 467.555 250.727C467.555 240.417 469.494 231.646 473.372 224.413C477.25 217.181 482.513 211.672 489.161 207.886C495.808 204.07 503.287 202.162 511.597 202.162C517.075 202.162 522.153 202.931 526.831 204.47C531.54 206.009 535.71 208.256 539.342 211.21C542.973 214.134 545.928 217.719 548.205 221.967C550.513 226.214 551.991 231.076 552.637 236.555ZM566.971 298V203.455H586.961V281.519H627.493V298H566.971ZM723.931 250.727C723.931 261.037 721.977 269.809 718.069 277.041C714.191 284.274 708.897 289.798 702.188 293.614C695.509 297.4 688 299.293 679.659 299.293C671.257 299.293 663.717 297.384 657.039 293.568C650.36 289.752 645.082 284.228 641.204 276.995C637.326 269.763 635.387 261.007 635.387 250.727C635.387 240.417 637.326 231.646 641.204 224.413C645.082 217.181 650.36 211.672 657.039 207.886C663.717 204.07 671.257 202.162 679.659 202.162C688 202.162 695.509 204.07 702.188 207.886C708.897 211.672 714.191 217.181 718.069 224.413C721.977 231.646 723.931 240.417 723.931 250.727ZM703.665 250.727C703.665 244.049 702.665 238.417 700.664 233.831C698.695 229.245 695.909 225.768 692.309 223.398C688.708 221.028 684.491 219.843 679.659 219.843C674.828 219.843 670.611 221.028 667.01 223.398C663.409 225.768 660.609 229.245 658.608 233.831C656.639 238.417 655.654 244.049 655.654 250.727C655.654 257.406 656.639 263.038 658.608 267.624C660.609 272.209 663.409 275.687 667.01 278.057C670.611 280.427 674.828 281.612 679.659 281.612C684.491 281.612 688.708 280.427 692.309 278.057C695.909 275.687 698.695 272.209 700.664 267.624C702.665 263.038 703.665 257.406 703.665 250.727ZM730.822 219.935V203.455H808.471V219.935H779.525V298H759.767V219.935H730.822ZM821.258 298V203.455H841.248V242.464H881.827V203.455H901.77V298H881.827V258.945H841.248V298H821.258ZM938.24 203.455V298H918.251V203.455H938.24ZM1033.77 203.455V298H1016.5L975.368 238.494H974.675V298H954.686V203.455H972.229L1013.04 262.915H1013.87V203.455H1033.77ZM1112.97 234.016C1112.33 231.769 1111.42 229.784 1110.25 228.06C1109.08 226.306 1107.65 224.829 1105.96 223.629C1104.29 222.397 1102.39 221.459 1100.23 220.812C1098.11 220.166 1095.75 219.843 1093.17 219.843C1088.34 219.843 1084.09 221.043 1080.43 223.444C1076.8 225.844 1073.96 229.338 1071.93 233.923C1069.9 238.478 1068.89 244.049 1068.89 250.635C1068.89 257.221 1069.89 262.822 1071.89 267.439C1073.89 272.055 1076.72 275.579 1080.38 278.011C1084.04 280.411 1088.37 281.612 1093.35 281.612C1097.88 281.612 1101.74 280.811 1104.94 279.211C1108.17 277.58 1110.63 275.287 1112.33 272.332C1114.05 269.378 1114.91 265.885 1114.91 261.853L1118.97 262.453H1094.6V247.403H1134.16V259.314C1134.16 267.624 1132.41 274.764 1128.9 280.734C1125.39 286.674 1120.56 291.26 1114.4 294.491C1108.25 297.692 1101.2 299.293 1093.26 299.293C1084.4 299.293 1076.61 297.338 1069.9 293.43C1063.19 289.49 1057.96 283.904 1054.21 276.672C1050.48 269.409 1048.62 260.791 1048.62 250.82C1048.62 243.156 1049.73 236.324 1051.94 230.322C1054.19 224.29 1057.33 219.181 1061.36 214.996C1065.39 210.81 1070.09 207.625 1075.44 205.44C1080.8 203.254 1086.6 202.162 1092.85 202.162C1098.2 202.162 1103.19 202.947 1107.8 204.516C1112.42 206.055 1116.51 208.24 1120.08 211.072C1123.68 213.903 1126.62 217.273 1128.9 221.182C1131.18 225.06 1132.64 229.338 1133.29 234.016H1112.97ZM1262.69 236.555H1242.47C1242.1 233.939 1241.34 231.615 1240.2 229.584C1239.06 227.522 1237.6 225.768 1235.82 224.321C1234.03 222.875 1231.97 221.767 1229.63 220.997C1227.32 220.228 1224.82 219.843 1222.11 219.843C1217.21 219.843 1212.95 221.059 1209.32 223.49C1205.69 225.891 1202.87 229.399 1200.87 234.016C1198.87 238.601 1197.87 244.172 1197.87 250.727C1197.87 257.467 1198.87 263.13 1200.87 267.716C1202.9 272.302 1205.73 275.764 1209.37 278.103C1213 280.442 1217.2 281.612 1221.97 281.612C1224.65 281.612 1227.12 281.258 1229.4 280.55C1231.71 279.842 1233.76 278.811 1235.54 277.457C1237.33 276.072 1238.8 274.394 1239.97 272.425C1241.17 270.455 1242 268.208 1242.47 265.685L1262.69 265.777C1262.16 270.116 1260.85 274.302 1258.76 278.334C1256.7 282.335 1253.91 285.92 1250.41 289.09C1246.93 292.229 1242.77 294.722 1237.94 296.569C1233.14 298.385 1227.71 299.293 1221.65 299.293C1213.21 299.293 1205.67 297.384 1199.02 293.568C1192.41 289.752 1187.18 284.228 1183.33 276.995C1179.51 269.763 1177.6 261.007 1177.6 250.727C1177.6 240.417 1179.54 231.646 1183.42 224.413C1187.3 217.181 1192.56 211.672 1199.21 207.886C1205.86 204.07 1213.34 202.162 1221.65 202.162C1227.12 202.162 1232.2 202.931 1236.88 204.47C1241.59 206.009 1245.76 208.256 1249.39 211.21C1253.02 214.134 1255.98 217.719 1258.25 221.967C1260.56 226.214 1262.04 231.076 1262.69 236.555ZM1363.9 250.727C1363.9 261.037 1361.95 269.809 1358.04 277.041C1354.16 284.274 1348.87 289.798 1342.16 293.614C1335.48 297.4 1327.97 299.293 1319.63 299.293C1311.23 299.293 1303.69 297.384 1297.01 293.568C1290.33 289.752 1285.05 284.228 1281.17 276.995C1277.3 269.763 1275.36 261.007 1275.36 250.727C1275.36 240.417 1277.3 231.646 1281.17 224.413C1285.05 217.181 1290.33 211.672 1297.01 207.886C1303.69 204.07 1311.23 202.162 1319.63 202.162C1327.97 202.162 1335.48 204.07 1342.16 207.886C1348.87 211.672 1354.16 217.181 1358.04 224.413C1361.95 231.646 1363.9 240.417 1363.9 250.727ZM1343.64 250.727C1343.64 244.049 1342.64 238.417 1340.64 233.831C1338.67 229.245 1335.88 225.768 1332.28 223.398C1328.68 221.028 1324.46 219.843 1319.63 219.843C1314.8 219.843 1310.58 221.028 1306.98 223.398C1303.38 225.768 1300.58 229.245 1298.58 233.831C1296.61 238.417 1295.62 244.049 1295.62 250.727C1295.62 257.406 1296.61 263.038 1298.58 267.624C1300.58 272.209 1303.38 275.687 1306.98 278.057C1310.58 280.427 1314.8 281.612 1319.63 281.612C1324.46 281.612 1328.68 280.427 1332.28 278.057C1335.88 275.687 1338.67 272.209 1340.64 267.624C1342.64 263.038 1343.64 257.406 1343.64 250.727ZM1383.87 299.2C1380.82 299.2 1378.21 298.123 1376.02 295.969C1373.87 293.784 1372.79 291.168 1372.79 288.121C1372.79 285.105 1373.87 282.519 1376.02 280.365C1378.21 278.211 1380.82 277.134 1383.87 277.134C1386.82 277.134 1389.41 278.211 1391.62 280.365C1393.84 282.519 1394.95 285.105 1394.95 288.121C1394.95 290.152 1394.42 292.014 1393.38 293.707C1392.36 295.369 1391.02 296.707 1389.36 297.723C1387.7 298.708 1385.87 299.2 1383.87 299.2Z" fill="black"/>
<path d="M790.278 361V313.727H817.7V317.605H794.595V335.402H816.246V339.279H794.595V357.122H818.162V361H790.278ZM854.54 325.545C854.278 322.914 853.116 320.821 851.054 319.267C848.992 317.713 846.399 316.936 843.276 316.936C841.075 316.936 839.136 317.313 837.459 318.067C835.797 318.821 834.489 319.867 833.535 321.206C832.596 322.529 832.127 324.037 832.127 325.73C832.127 326.977 832.396 328.069 832.935 329.008C833.473 329.946 834.196 330.754 835.104 331.431C836.028 332.093 837.043 332.663 838.151 333.14C839.275 333.617 840.406 334.017 841.544 334.34L846.53 335.771C848.038 336.186 849.546 336.717 851.054 337.364C852.562 338.01 853.94 338.826 855.186 339.81C856.448 340.78 857.456 341.972 858.21 343.388C858.979 344.788 859.364 346.473 859.364 348.443C859.364 350.967 858.71 353.237 857.402 355.252C856.094 357.268 854.217 358.869 851.77 360.054C849.323 361.223 846.392 361.808 842.975 361.808C839.759 361.808 836.966 361.277 834.597 360.215C832.227 359.138 830.365 357.653 829.011 355.76C827.656 353.868 826.895 351.675 826.725 349.182H831.157C831.311 351.044 831.927 352.621 833.004 353.914C834.081 355.206 835.481 356.191 837.205 356.868C838.928 357.53 840.852 357.861 842.975 357.861C845.33 357.861 847.423 357.468 849.254 356.684C851.1 355.883 852.547 354.775 853.593 353.36C854.655 351.929 855.186 350.267 855.186 348.374C855.186 346.774 854.771 345.435 853.94 344.358C853.109 343.265 851.947 342.349 850.454 341.611C848.977 340.872 847.261 340.218 845.307 339.649L839.652 337.987C835.943 336.879 833.065 335.348 831.019 333.393C828.972 331.439 827.949 328.946 827.949 325.915C827.949 323.376 828.626 321.144 829.98 319.221C831.35 317.282 833.196 315.774 835.52 314.697C837.859 313.604 840.483 313.058 843.391 313.058C846.33 313.058 848.931 313.596 851.193 314.674C853.455 315.751 855.248 317.236 856.571 319.129C857.91 321.006 858.625 323.145 858.718 325.545H854.54ZM866.889 317.605V313.727H901.166V317.605H886.186V361H881.869V317.605H866.889ZM928.15 361V357.838L943.592 340.48C945.607 338.202 947.231 336.256 948.462 334.64C949.693 333.024 950.586 331.531 951.14 330.162C951.709 328.792 951.994 327.369 951.994 325.892C951.994 324.091 951.57 322.522 950.724 321.183C949.893 319.829 948.747 318.775 947.285 318.021C945.823 317.267 944.176 316.89 942.345 316.89C940.406 316.89 938.706 317.305 937.244 318.136C935.797 318.967 934.674 320.106 933.874 321.552C933.074 322.999 932.674 324.661 932.674 326.538H928.542C928.542 323.922 929.142 321.606 930.342 319.59C931.558 317.559 933.212 315.966 935.305 314.812C937.413 313.658 939.798 313.081 942.461 313.081C945.092 313.081 947.431 313.65 949.478 314.789C951.524 315.912 953.132 317.444 954.302 319.382C955.471 321.321 956.056 323.491 956.056 325.892C956.056 327.631 955.748 329.316 955.133 330.947C954.533 332.578 953.494 334.394 952.017 336.394C950.539 338.395 948.493 340.841 945.877 343.734L934.151 356.822V357.122H957.533V361H928.15ZM982.503 361.646C979.179 361.646 976.34 360.692 973.985 358.784C971.646 356.861 969.846 354.083 968.584 350.451C967.338 346.82 966.714 342.457 966.714 337.364C966.714 332.286 967.338 327.938 968.584 324.322C969.846 320.69 971.654 317.913 974.008 315.989C976.378 314.05 979.21 313.081 982.503 313.081C985.796 313.081 988.62 314.05 990.974 315.989C993.344 317.913 995.152 320.69 996.398 324.322C997.66 327.938 998.291 332.286 998.291 337.364C998.291 342.457 997.66 346.82 996.398 350.451C995.152 354.083 993.351 356.861 990.997 358.784C988.658 360.692 985.827 361.646 982.503 361.646ZM982.503 357.768C986.15 357.768 988.997 355.991 991.043 352.436C993.09 348.866 994.113 343.842 994.113 337.364C994.113 333.055 993.644 329.377 992.705 326.33C991.782 323.268 990.451 320.929 988.712 319.313C986.988 317.697 984.919 316.89 982.503 316.89C978.887 316.89 976.047 318.69 973.985 322.291C971.923 325.876 970.892 330.901 970.892 337.364C970.892 341.672 971.354 345.35 972.277 348.397C973.216 351.444 974.547 353.768 976.271 355.368C978.009 356.968 980.087 357.768 982.503 357.768ZM1007.69 361V357.838L1023.13 340.48C1025.14 338.202 1026.77 336.256 1028 334.64C1029.23 333.024 1030.12 331.531 1030.68 330.162C1031.25 328.792 1031.53 327.369 1031.53 325.892C1031.53 324.091 1031.11 322.522 1030.26 321.183C1029.43 319.829 1028.28 318.775 1026.82 318.021C1025.36 317.267 1023.71 316.89 1021.88 316.89C1019.94 316.89 1018.24 317.305 1016.78 318.136C1015.33 318.967 1014.21 320.106 1013.41 321.552C1012.61 322.999 1012.21 324.661 1012.21 326.538H1008.08C1008.08 323.922 1008.68 321.606 1009.88 319.59C1011.09 317.559 1012.75 315.966 1014.84 314.812C1016.95 313.658 1019.33 313.081 1022 313.081C1024.63 313.081 1026.97 313.65 1029.01 314.789C1031.06 315.912 1032.67 317.444 1033.84 319.382C1035.01 321.321 1035.59 323.491 1035.59 325.892C1035.59 327.631 1035.28 329.316 1034.67 330.947C1034.07 332.578 1033.03 334.394 1031.55 336.394C1030.08 338.395 1028.03 340.841 1025.41 343.734L1013.69 356.822V357.122H1037.07V361H1007.69ZM1047.36 361V357.838L1062.8 340.48C1064.82 338.202 1066.44 336.256 1067.67 334.64C1068.9 333.024 1069.79 331.531 1070.35 330.162C1070.92 328.792 1071.2 327.369 1071.2 325.892C1071.2 324.091 1070.78 322.522 1069.93 321.183C1069.1 319.829 1067.96 318.775 1066.49 318.021C1065.03 317.267 1063.39 316.89 1061.55 316.89C1059.62 316.89 1057.91 317.305 1056.45 318.136C1055.01 318.967 1053.88 320.106 1053.08 321.552C1052.28 322.999 1051.88 324.661 1051.88 326.538H1047.75C1047.75 323.922 1048.35 321.606 1049.55 319.59C1050.77 317.559 1052.42 315.966 1054.51 314.812C1056.62 313.658 1059.01 313.081 1061.67 313.081C1064.3 313.081 1066.64 313.65 1068.69 314.789C1070.73 315.912 1072.34 317.444 1073.51 319.382C1074.68 321.321 1075.27 323.491 1075.27 325.892C1075.27 327.631 1074.96 329.316 1074.34 330.947C1073.74 332.578 1072.7 334.394 1071.23 336.394C1069.75 338.395 1067.7 340.841 1065.09 343.734L1053.36 356.822V357.122H1076.74V361H1047.36Z" fill="black"/>
<line x1="253" y1="10" x2="253" y2="490" stroke="black" stroke-width="20" stroke-linecap="round"/>
<line x1="153" y1="10" x2="153" y2="490" stroke="black" stroke-width="20" stroke-linecap="round"/>
<line x1="13.6871" y1="253.559" x2="151.559" y2="488.313" stroke="black" stroke-width="20" stroke-linecap="round"/>
<line x1="253.442" y1="488.302" x2="391.331" y2="253.558" stroke="black" stroke-width="20" stroke-linecap="round"/>
<line x1="10" y1="10" x2="395" y2="10" stroke="black" stroke-width="20" stroke-linecap="round"/>
<line x1="391" y1="253" x2="341" y2="253" stroke="black" stroke-width="20" stroke-linecap="round"/>
</svg>
